<?xml version="1.0" encoding="utf-8"?>
<!-- Generator: Adobe Illustrator 16.0.0, SVG Export Plug-In . SVG Version: 6.00 Build 0)  -->
<!DOCTYPE svg PUBLIC "-//W3C//DTD SVG 1.1//EN" "http://www.w3.org/Graphics/SVG/1.1/DTD/svg11.dtd">
<svg version="1.1" id="icon" xmlns="http://www.w3.org/2000/svg" xmlns:xlink="http://www.w3.org/1999/xlink" x="0px" y="0px"
	 width="72px" height="72px" viewBox="0 0 72 72" enable-background="new 0 0 72 72" xml:space="preserve">
<g id="bottom_three">
	<path fill="#ffc107" d="M63,60c0,1.656-1.343,3-3,3H42c-1.656,0-3-1.344-3-3V42c0-1.656,1.344-3,3-3h18c1.657,0,3,1.344,3,3V60z"/>
	<g enable-background="new    ">
		<path fill="#FFFFFF" d="M49.739,51.639v-1.596c0.903,0,1.56-0.053,1.972-0.158c0.411-0.104,0.73-0.313,0.96-0.625
			c0.229-0.313,0.343-0.707,0.343-1.184c0-0.574-0.168-1.07-0.506-1.484c-0.336-0.414-0.836-0.621-1.498-0.621
			c-0.729,0-1.262,0.219-1.596,0.654s-0.516,1.086-0.547,1.953h-1.791c0-1.484,0.367-2.541,1.1-3.168
			c0.732-0.629,1.631-0.943,2.695-0.943c1.293,0,2.267,0.32,2.922,0.957c0.656,0.637,0.984,1.449,0.984,2.439
			c0,0.73-0.188,1.346-0.563,1.846c-0.373,0.502-0.796,0.857-1.266,1.066c1.607,0.477,2.412,1.504,2.412,3.08
			c0,1.313-0.441,2.295-1.322,2.947s-1.916,0.979-3.104,0.979c-1.516,0-2.636-0.406-3.363-1.217c-0.727-0.809-1.09-1.93-1.09-3.357
			h1.707c0.031,0.99,0.303,1.746,0.813,2.268c0.51,0.523,1.188,0.785,2.036,0.785c0.772,0,1.381-0.215,1.823-0.645
			c0.441-0.43,0.663-0.973,0.663-1.629c0-0.688-0.26-1.25-0.779-1.693c-0.52-0.441-1.349-0.664-2.486-0.664
			C50.11,51.629,49.938,51.633,49.739,51.639z"/>
	</g>
</g>
<g id="top_three">
	<path fill="#ffc107" d="M33,30c0,1.657-1.343,3-3,3H12c-1.657,0-3-1.343-3-3V12c0-1.657,1.343-3,3-3h18c1.657,0,3,1.343,3,3V30z"/>
	<g enable-background="new    ">
		<path fill="#FFFFFF" d="M19.738,21.639v-1.596c0.903,0,1.56-0.053,1.971-0.158c0.412-0.104,0.731-0.313,0.96-0.626
			c0.229-0.312,0.343-0.706,0.343-1.183c0-0.575-0.168-1.07-0.506-1.484c-0.337-0.414-0.836-0.621-1.498-0.621
			c-0.73,0-1.262,0.218-1.596,0.653c-0.334,0.437-0.517,1.087-0.547,1.953h-1.791c0-1.484,0.366-2.54,1.1-3.168
			c0.732-0.628,1.631-0.942,2.695-0.942c1.292,0,2.267,0.319,2.922,0.956c0.655,0.637,0.983,1.45,0.983,2.44
			c0,0.729-0.187,1.345-0.562,1.846c-0.374,0.501-0.796,0.856-1.266,1.066c1.608,0.477,2.412,1.504,2.412,3.08
			c0,1.312-0.441,2.294-1.322,2.946c-0.882,0.652-1.916,0.979-3.104,0.979c-1.516,0-2.636-0.405-3.363-1.216
			c-0.727-0.81-1.09-1.93-1.09-3.357h1.707c0.031,0.989,0.302,1.745,0.812,2.268c0.511,0.523,1.189,0.784,2.037,0.784
			c0.773,0,1.381-0.215,1.823-0.645c0.442-0.43,0.664-0.973,0.664-1.628c0-0.688-0.26-1.251-0.779-1.693s-1.349-0.664-2.486-0.664
			C20.109,21.629,19.936,21.633,19.738,21.639z"/>
	</g>
</g>
<g id="nine">
	<path fill="#8bc34a" d="M33,60c0,1.656-1.343,3-3,3H12c-1.657,0-3-1.344-3-3V42c0-1.656,1.343-3,3-3h18c1.657,0,3,1.344,3,3V60z"/>
	<path opacity="0.2" enable-background="new    " d="M33,60c0,1.656-1.343,3-3,3h-1.95l-9.633-5.792l-0.033-3.444l4.211,2.531
		l0.77-1.004l-4.781-2.874l-1-3.75l1.875-3.292l3.246-0.326l10.299,6.192L33,60z"/>
	<path fill="#FFFFFF" d="M16.816,53.764h1.568c0.093,0.736,0.353,1.336,0.779,1.801c0.427,0.463,0.94,0.695,1.54,0.695
		c0.829,0,1.472-0.43,1.93-1.289s0.692-2.031,0.705-3.517c-0.872,0.952-1.88,1.429-3.024,1.429c-1.021,0-1.874-0.367-2.561-1.104
		c-0.687-0.737-1.03-1.704-1.03-2.904c0-1.212,0.346-2.25,1.039-3.111c0.692-0.863,1.642-1.295,2.848-1.295
		c1.342,0,2.415,0.553,3.219,1.655c0.804,1.104,1.206,2.745,1.206,4.922c0,2.072-0.388,3.712-1.164,4.923
		c-0.776,1.209-1.901,1.813-3.373,1.813c-1.145,0-2.035-0.379-2.672-1.137C17.19,55.887,16.853,54.928,16.816,53.764z
		 M23.245,49.506c-0.266-2.338-1.12-3.507-2.561-3.507c-0.711,0-1.276,0.265-1.693,0.793c-0.418,0.528-0.626,1.177-0.626,1.944
		c0,0.699,0.184,1.283,0.552,1.752c0.368,0.471,0.901,0.705,1.6,0.705C21.433,51.193,22.342,50.632,23.245,49.506z"/>
</g>
</svg>
