<?xml version="1.0" encoding="utf-8"?>
<!-- Generator: Adobe Illustrator 16.0.0, SVG Export Plug-In . SVG Version: 6.00 Build 0)  -->
<!DOCTYPE svg PUBLIC "-//W3C//DTD SVG 1.1//EN" "http://www.w3.org/Graphics/SVG/1.1/DTD/svg11.dtd">
<svg version="1.1" xmlns="http://www.w3.org/2000/svg" xmlns:xlink="http://www.w3.org/1999/xlink" x="0px" y="0px" width="72px"
	 height="72px" viewBox="0 0 72 72" enable-background="new 0 0 72 72" xml:space="preserve">
<g id="guides">
</g>
<g id="Layer_1">
</g>
<g id="Layer_2">
	<g>
		<path fill="#FFAA2A" d="M33,30c0,1.657-1.343,3-3,3H12c-1.657,0-3-1.343-3-3V12c0-1.657,1.343-3,3-3h18c1.657,0,3,1.343,3,3V30z"
			/>
		<text transform="matrix(1 0 0 1 15.8511 27.5767)" fill="#FFFFFF" font-family="'Rockwell'" font-size="19">3</text>
	</g>
	<g>
		<path fill="#FFAA2A" d="M63,60c0,1.656-1.343,3-3,3H42c-1.656,0-3-1.344-3-3V42c0-1.656,1.344-3,3-3h18c1.657,0,3,1.344,3,3V60z"
			/>
		<text transform="matrix(1 0 0 1 45.8516 57.5771)" fill="#FFFFFF" font-family="'Rockwell'" font-size="19">3</text>
	</g>
	<path fill="#8BC34A" d="M33,60c0,1.656-1.343,3-3,3H12c-1.657,0-3-1.344-3-3V42c0-1.656,1.343-3,3-3h18c1.657,0,3,1.344,3,3V60z"/>
	<path opacity="0.2" d="M33,60c0,1.656-1.343,3-3,3h-1.95l-9.633-5.792l-0.033-3.444l4.211,2.531l0.77-1.004l-4.781-2.874l-1-3.75
		l1.875-3.292l3.246-0.326l10.299,6.192L33,60z"/>
	<path fill="#FFFFFF" d="M16.816,53.764h1.568c0.093,0.736,0.353,1.336,0.779,1.801c0.427,0.463,0.94,0.695,1.54,0.695
		c0.829,0,1.472-0.43,1.93-1.289c0.458-0.859,0.692-2.032,0.705-3.517c-0.872,0.952-1.88,1.429-3.024,1.429
		c-1.021,0-1.874-0.367-2.561-1.104s-1.03-1.704-1.03-2.904c0-1.212,0.346-2.25,1.039-3.112c0.692-0.863,1.642-1.294,2.848-1.294
		c1.342,0,2.415,0.552,3.219,1.655c0.804,1.104,1.206,2.745,1.206,4.922c0,2.072-0.388,3.712-1.164,4.922
		c-0.776,1.209-1.901,1.813-3.373,1.813c-1.145,0-2.035-0.379-2.672-1.137C17.19,55.887,16.853,54.928,16.816,53.764z
		 M23.245,49.506c-0.266-2.338-1.12-3.507-2.561-3.507c-0.711,0-1.276,0.265-1.693,0.793c-0.418,0.529-0.626,1.177-0.626,1.944
		c0,0.699,0.184,1.283,0.552,1.753c0.368,0.47,0.901,0.705,1.6,0.705C21.433,51.194,22.342,50.632,23.245,49.506z"/>
	<g>
		<defs>
			<rect id="SVGID_1_" width="72" height="72"/>
		</defs>
		<clipPath id="SVGID_2_">
			<use xlink:href="#SVGID_1_"  display="none" overflow="visible"/>
		</clipPath>
	</g>
</g>
<g id="shadow">
</g>
</svg>
